<?xml version="1.0" encoding="utf-8"?>
<!-- Generator: Adobe Illustrator 15.1.0, SVG Export Plug-In  -->
<!DOCTYPE svg PUBLIC "-//W3C//DTD SVG 1.1//EN" "http://www.w3.org/Graphics/SVG/1.1/DTD/svg11.dtd" [
	<!ENTITY ns_flows "http://ns.adobe.com/Flows/1.0/">
]>
<svg version="1.1"
	 xmlns="http://www.w3.org/2000/svg" xmlns:xlink="http://www.w3.org/1999/xlink" xmlns:a="http://ns.adobe.com/AdobeSVGViewerExtensions/3.0/"
	 x="0px" y="0px" width="960px" height="500px" viewBox="-36.6 -36.2 960 500" enable-background="new -36.6 -36.2 960 500"
	 xml:space="preserve">
<defs>
</defs>
<path fill="#2CA84A" d="M162.6,333.7c-0.8,0-1.6-0.8-1.6-2V217c0-0.8,0.6-1.4,1.4-1.4H187c1.4,0,3,8.3,3.7,8.3
	c0.2,0,0.6-0.2,1.4-1.2c3.5-4.5,7.1-7.1,15.4-7.1c9.6,0,19.3,7.5,19.3,20.9v96.3c0,0.6-0.4,1-1,1h-27.2c-0.8,0-1.4-0.6-1.4-1.4
	v-80.5c0-3-1.6-3.9-3.2-3.9c-1.6,0-3.2,1-3.2,3.9v80.7c0,0.8-0.4,1.2-1.4,1.2H162.6z"/>
<path fill="#2CA84A" d="M245.3,247.5c0-23.2,17.9-31.9,33.9-31.9c22.3,0,35.1,17.1,35.1,36.4v12c0,1-0.8,1.8-1.8,1.8h-32.9
	c-0.8,0-1.2,0.6-1.2,1.6v30.9c0,3.1,1.4,4.3,3.2,4.3c1.4,0,3.2-1.2,3.2-4.1v-12c0-0.8,0.6-1.6,1.8-1.6l25.4,1.4c1.2,0.2,2,1,2,2.2
	V301c0,25.2-17.3,32.7-35.4,32.7c-21.1,0-33.1-15-33.1-37.4V247.5z M278.4,254.2c0,0.6,0.6,1,1.2,1c4.5,0,5.1,0,5.1-1
	c0-12.6-0.2-14-3.3-14c-1.6,0-3,1.2-3,4.1V254.2z"/>
<path fill="#2CA84A" d="M333.9,255.4c-1.4,0-1.4-1-1.4-10.2c0-15.6,12-29.5,32.5-29.5c21.7,0,33.7,13.6,33.7,28.9v53.4
	c0,1.6,0.6,1.6,4.9,1.6c0.8,0,1.4,0.8,1.4,1.6v12.2c0,9.6-8.5,21.1-19.5,21.1c-9.1,0-12.6-3-15.6-7.5c-1-1.4-1.6-1.8-2-1.8
	c-0.2,0-1,0.4-2.2,2c-2.2,3-6.9,6.7-13.8,6.7c-8.3,0-20.5-6.9-20.5-26.6v-14.6c0-15.6,10.4-23.8,21.3-28.4
	c14.4-6.1,15.2-8.3,15.2-15.2c0-2.8-1.2-4.1-3-4.1c-3.2,0-3.2,1.2-3.2,10.2c0,1-0.8,1.6-1.8,1.6L333.9,255.4z M368,283.1
	c0-0.8-0.4-1.4-1.2-1.6c-1.2,0-5.1,1.8-5.1,6.1v14.6c0,2.4,1.6,3.3,3.2,3.3c1.6,0,3.2-1,3.2-3.3V283.1z"/>
<path fill="#2CA84A" d="M424.5,248.3c0-0.8-0.4-1.4-1.2-1.4c-4.1,0-4.5,0-4.5-1.4v-28.8c0-0.6,0.4-1.2,0.8-1.2c4.5,0,4.9,0,4.9-1.4
	v-17.3c0-0.8,0.6-1.4,1.4-1.4h28.4c2,0,2,0.4,2,1.8v16.5c0,1.2,0.6,1.8,1.6,1.8c6.1,0,6.7,0,6.7,1.4v28.6c0,0.8-0.6,1.4-1.4,1.4
	c-6.1,0-6.9,0-6.9,1.6v51.8c0,0.8,0.6,1.6,1.2,1.6c6.9,0,7.7,0,7.7,1.2c0,11.2,0,30.7-20.1,30.7c-11.8,0-20.5-7.3-20.5-30.9V248.3z"
	/>
<path fill="#826126" d="M486.7,188.8c0-1.4,1-2.8,2.4-2.8h70.9c1.4,0,2.4,1,2.4,2.2v34.3c0,1.4-1.2,2.6-2.6,2.6h-31.9
	c-1.2,0-2.2,0.8-2.2,2.2V239c0,1,0.6,1.8,2,1.8h15c1,0,2.2,1,2.2,2v35.6c0,1.2-1,2.2-2.4,2.2h-14.8c-1,0-2,1.4-2,2.6V331
	c0,1.8-1,2.8-2.6,2.8h-34.3c-1,0-2.2-1.2-2.2-2.6V188.8z"/>
<path fill="#826126" d="M653.9,293c1.4,0,2.2,1,2.2,2v36.6c0,1.2-1,2.2-2.2,2.2h-70.5c-1.2,0-2.2-1.2-2.2-2.6V188.8
	c0-1.2,1.2-2.8,2.6-2.8H617c1.2,0,2,1,2,2.2v103.4c0,0.8,0.6,1.4,1.2,1.4H653.9z"/>
<path fill="#826126" d="M738.1,186c1.4,0,2.4,1.2,2.6,2.6l27,140.8c0.4,2.2-0.6,4.3-2.8,4.3H733c-1.2,0-2.4-0.8-2.6-2l-3.9-29.5
	c-0.2-1-1-1.6-2-1.6h-10.6c-0.8,0-1.6,0.8-1.8,2l-3.7,28.9c-0.2,1.4-1.6,2.2-2.6,2.2h-32.5c-1.8,0-2.8-1.4-2.4-3.3l26.4-142
	c0.2-1,1.2-2.4,2.4-2.4H738.1z M720.8,260.3c-0.4-2.8-0.8-4.5-1.4-4.5s-1,1.4-1.4,4.5l-2.6,18.7c-0.2,1,0.2,2,1.2,2
	c6.3,0,6.9,0,6.7-1.8L720.8,260.3z"/>
<path fill="#826126" d="M806.3,259.7c0.2-0.4,0.4-1.2,0.4-1.6c0-0.4-0.2-1.4-0.4-2l-22.4-67.9c-0.4-1,0-2.2,1.2-2.2h36
	c0.8,0,1.4,0.8,1.6,1.6l4.5,20.5c0.2,0.8,0.6,1.4,0.8,1.4c0.4,0,0.8-0.6,1-1.4l4.5-20.5c0.2-1,0.8-1.6,1.6-1.6h36
	c0.8,0,1.6,0.6,1.6,1.6c0,0.4,0,0.8-0.2,1.4L850,255.4c-0.4,0.8-0.6,2.2-0.6,2.6c0,0.4,0.2,1.6,0.4,2.2l22.8,71.7c0.4,1.4,0,2-1.2,2
	h-36.6c-0.6,0-1.2-0.6-1.4-1.4l-4.5-24.2c-0.2-0.8-0.6-1.2-0.8-1.2c-0.4,0-0.6,0.4-0.8,1.2l-4.5,24.2c-0.2,0.8-1,1.4-1.8,1.4h-36.2
	c-0.8,0-1.2-0.4-1.2-1c0-0.4,0-0.6,0.2-1L806.3,259.7z"/>
<polygon fill="#B2AC67" points="872.7,370.8 157.2,370.8 157.2,356.2 872.7,352.1 "/>
<path fill="#2CA84A" d="M124.8,92.9c7.8,10.5-17.9,24.1,4.2,28.3c40.2,7.6,81.6-95.2,67.6-95.9c-12.4-0.6-86.6,28.7-88.8,67.4
	C106.4,118.3,117,82.4,124.8,92.9z"/>
<path fill="#247139" d="M122.9,109.8c1,1.6,3.3,2.7,7.9,3.4c29.1,4,61.4-53.7,68.2-79.6c-1.1,20-37.3,91.3-69.5,86.8
	C119.2,118.9,120.2,114.8,122.9,109.8z"/>
<path fill="#247139" d="M110.7,94.9c0.2-2,0.6-3.9,1.2-5.8c-1.7,21.1,9.3-11.1,16.1-1.9c2.1,2.8,1.3,6.1-0.3,9.3
	c-0.2-0.7-0.5-1.4-1-2.1C119.7,85,108.4,118.7,110.7,94.9z"/>
<path fill="#64BE63" d="M127.2,90.4L127.2,90.4c1.8-1.3,3.7-1.5,5.4,0.9c6.9,9.3-14.7,21.3,1.7,25.7c-1.1,0-2.1-0.1-3.2-0.3
	C110.6,112.8,134.4,100.1,127.2,90.4z"/>
<path fill="#64BE63" d="M111.4,90.2c2-35.9,70.8-63.1,82.3-62.5c0.8,0,1.4,0.5,1.9,1.2c-18,3.3-76.9,29-78.8,62.2
	c-0.1,1.4-0.1,2.6-0.1,3.7C113.2,99.3,110.7,102.8,111.4,90.2z"/>
<path fill="#64BE63" d="M133.1,91.9c2.8-6.2,6.5-11.8,10.4-17.2c4-5.4,8.3-10.5,12.9-15.2c4.7-4.8,9.7-9.3,15.2-13.2
	c2.8-1.9,5.7-3.7,8.8-5.2c3.1-1.5,6.4-2.7,9.8-3c-2.8,1.9-5.2,4-7.6,6.2c-2.4,2.2-4.7,4.5-6.9,6.8L162.1,65
	c-4.6,4.7-9.2,9.3-13.9,13.8C143.3,83.3,138.5,87.8,133.1,91.9z"/>
<path fill="#247139" d="M134.5,85.6c2.2-1.8,48.1-54,55.6-50.6"/>
<path fill="#B2AC67" d="M98.8,372.3c-26,6-56.3-29.3-67.6-78.7c-11.3-49.4,15.3-97.7,26.6-100.3c11.3-2.6,56.3,29.3,67.6,78.7
	C136.7,321.4,124.9,366.3,98.8,372.3z"/>
<path fill="#826126" d="M102.1,380.2c-26,6-56.3-29.3-67.6-78.7C23.2,252,49.8,203.7,61.1,201.2c11.3-2.6,56.3,29.3,67.6,78.7
	C140,329.3,128.1,374.3,102.1,380.2z"/>
<path fill="#2CA84A" d="M109.8,318.7c-4.9-3.9-9-8.4-12.8-13.2c-3.9-4.8-7.3-9.9-10.4-15.2c-6.2-10.6-11-22.3-14.2-34.5
	c-0.8-3.1-1.5-6.2-2.1-9.3c-0.6-3.1-1-6.3-1.4-9.5c-0.8-6.4-0.9-12.9-0.7-19.4c0.1-3.3,0.4-6.5,0.8-9.8c0.4-3.3,0.9-6.5,1.5-9.8
	c1.4-6.5,3.2-12.8,5.4-19.1c0.6-1.6,1.1-2.8,1.7-4.3l1.7-4.2c1.2-2.8,2.4-5.6,3.7-8.3c1.3-2.7,2.7-5.4,4-8.1c1.4-2.7,2.8-5.4,4.3-8
	c3-5.2,6-10.4,9.3-15.3c1.6-2.5,3.2-4.9,4.9-7.3l5.1-7.1c1.7-2.4,3.5-4.6,5.2-6.9c1.7-2.3,3.4-4.5,5.1-6.7c1.7-2.2,3.3-4.4,5-6.6
	c1.6-2.2,3.2-4.3,4.6-6.5c1.5-2.1,2.8-4.3,4-6.4c1.2-2.1,2.1-4.3,2.9-6.5c0.7-2.2,1.1-4.6,1-7.1c-0.1-2.6-0.7-5.3-1.6-8.1l1.7-1.4
	c1.9,2.3,3.6,4.8,4.7,7.6c1.1,2.8,1.8,5.8,1.8,8.8c0.2,6.1-1.5,11.9-3.5,17.3c-2.1,5.5-4.7,10.7-7.3,15.8
	c-2.7,5.1-5.4,10.1-8.2,15.2c-5.5,10.1-11,20.1-16,30.3c-5,10.2-9.6,20.7-13.6,31.4c-4,10.6-6.5,21.7-7.6,32.9
	c-1.1,11.3-0.7,22.6,0.8,33.9c1.5,11.2,4.2,22.3,7.9,33.1c1.8,5.4,3.9,10.7,6.2,15.9c2.3,5.2,4.8,10.3,7.7,15.2L109.8,318.7z"/>
<path fill="#64BE63" d="M101,307.9c-1.9-2.2-3.5-4.5-5.1-6.9c-1.6-2.4-3.1-4.8-4.6-7.3c-2.9-5-5.4-10.2-7.8-15.4
	c-2.3-5.3-4.2-10.8-5.9-16.4c-1.7-5.6-2.9-11.3-4-17.1c-0.5-2.9-0.9-5.8-1.2-8.7c-0.3-2.9-0.5-5.9-0.6-8.8c-0.2-5.9,0-11.9,0.6-17.8
	c1.3-11.8,4.3-23.5,8.7-34.6c4.5-10.6,9.5-21,15.1-31.1c2.8-5,5.7-9.9,8.7-14.8c1.5-2.4,3-4.9,4.5-7.3l4.7-7.1l9.2-14.1
	c3.1-4.7,6-9.4,8.5-14.2c2.5-4.8,4.6-9.8,5.2-14.9c0.3-2.6,0.2-5.2-0.5-7.8c-0.6-2.6-1.8-5.1-3.4-7.5l0.6-0.5
	c1.9,2.2,3.4,4.6,4.5,7.3c1,2.7,1.5,5.6,1.5,8.5c-0.1,5.8-1.9,11.3-4.1,16.5c-2.2,5.2-4.9,10.2-7.7,15.2c-2.8,4.9-5.7,9.8-8.5,14.7
	c-5.7,9.7-11.4,19.5-16.6,29.5c-5.2,10-10.1,20.2-14.3,30.6c-4.3,10.4-7.2,21.3-8.6,32.5c-1.4,11.2-1.3,22.5,0,33.7
	c1.4,11.2,4,22.2,7.6,32.8c1.8,5.3,3.9,10.6,6.3,15.7c2.4,5.1,4.9,10.2,7.9,14.9L101,307.9z"/>
<path fill="#B2AC67" d="M111.6,377.8C87,388,51.2,358.3,31.8,311.4c-19.4-46.9-1.3-98.9,9.4-103.4c10.7-4.4,60.4,19.5,79.8,66.3
	C140.5,321.3,136.2,367.5,111.6,377.8z"/>
<path fill="#D1CC9B" d="M42.2,315c-17.4-41.9-1.2-88.5,8.4-92.5c6.5-2.7,28.8,6.2,48,25.1c-20.3-23.6-47.2-35-54.4-32
	c-9.6,4-25.8,50.6-8.4,92.5c7.6,18.2,17.9,33.5,28.9,44.3C56.1,342.4,48.2,329.6,42.2,315z"/>
<path fill="#2CA84A" d="M124.8,101.8c12.9,5.7-4.1,32.1,18.9,24.3C185.4,112,170-6.4,156.4,0.3c-12,6-66.1,72.7-47.7,110.2
	C120.9,135.3,111.9,96,124.8,101.8z"/>
<path fill="#247139" d="M131.9,118.6c1.7,1,4.5,0.8,9.2-1c29.5-11.6,29.3-82.9,22-110.9c9.5,19.4,13.3,105.4-19.4,118.3
	C133.3,129.1,132,124.7,131.9,118.6z"/>
<path fill="#247139" d="M112.5,111.1c-0.9-1.9-1.5-4-2-6.1c9.5,20.7,2.8-15.3,14.1-10.3c3.5,1.5,4.4,5,4.7,8.8
	c-0.6-0.6-1.3-1-2.1-1.4C115.8,97,122.9,134.7,112.5,111.1z"/>
<path fill="#64BE63" d="M125.6,98.2l-0.1,0c1.1-2.2,2.8-3.3,5.6-2c11.4,5.1-2.5,27.8,15.1,23.3c-1,0.5-2.1,1-3.2,1.3
	C121.9,127.9,137.6,103.5,125.6,98.2z"/>
<path fill="#64BE63" d="M110.8,106.3C93.7,71.5,143.9,9.6,155,4.1c0.8-0.4,1.6-0.3,2.4,0.2c-15.2,12.6-56.9,67.9-41.1,100
	c0.7,1.4,1.3,2.5,1.8,3.5C117.2,113.9,116.8,118.5,110.8,106.3z"/>
<path fill="#64BE63" d="M132,96.4c-0.5-7.3,0-14.5,0.9-21.6c0.9-7.1,2.3-14.2,4.1-21.1c1.9-6.9,4.2-13.8,7.3-20.4
	c1.6-3.3,3.3-6.5,5.4-9.6c1-1.5,2.1-3,3.4-4.4c1.2-1.4,2.6-2.7,4.1-3.7c-1.7,3.2-2.9,6.5-4,9.8c-1.1,3.3-2.1,6.7-3,10
	c-1.9,6.7-3.6,13.5-5.5,20.3c-1.8,6.8-3.7,13.6-5.7,20.4C136.9,82.9,134.7,89.7,132,96.4z"/>
<path fill="#247139" d="M130,89.7c1.1-2.8,16.7-76.1,25.5-76.9"/>
<path fill="#64BE63" d="M122,95.3c1.2,1.5,1.6,2.7,1.7,3.9c0.1,0.6,0.1,1.2,0,1.7c-0.1,0.6-0.2,1.1-0.7,1.5
	c-0.8,0.9-2.3,1.7-2.8,2.7c-0.6,1-0.4,2.2,0,3.4c0.2,0.6,0.4,1.3,0.5,1.9c0.1,0.6,0.1,1.2,0.1,1.8c0,1.1,0,2.3-0.4,3.3
	c-0.4,1-1.1,2-1.9,2.9c-0.4,0.5-0.9,0.9-1.5,1.3c-0.6,0.4-1.2,0.8-2,1.2l-0.8-0.2c-0.5-0.7-0.9-1.4-1.1-2c-0.3-0.7-0.5-1.3-0.6-1.9
	c-0.3-1.2-0.4-2.4-0.2-3.5c0.2-1.1,0.8-2.1,1.3-3.1c0.3-0.5,0.6-1,1-1.5c0.4-0.5,0.9-0.9,1.4-1.3c1-0.9,1.7-1.8,1.7-3
	c0.1-1.1-0.9-2.5-1.1-3.7c-0.1-0.6,0-1.2,0.2-1.7c0.2-0.5,0.5-1,0.9-1.5c0.7-0.9,1.7-1.8,3.5-2.5L122,95.3z"/>
<path fill="#826126" d="M218.1,392.5c0,0-78.6-55.6-124.2-53.7c-45.7,1.9-59.8,23.4-93.9,12.1c0,0,27.5,70.4,100.8,44.6
	C125.7,386.7,175.1,375.9,218.1,392.5z"/>
<path fill="#9B6F29" d="M213.8,388.8c0,0-77-48-121.1-47.3c-44.1,0.7-57.3,18.4-90.5,8.3c0,0,24,22.3,94.3,2.1
	C120.4,345,171.9,374,213.8,388.8z"/>
</svg>
